<svg xmlns="http://www.w3.org/2000/svg" width="640" height="640" viewBox="0 0 640 640" role="img" aria-labelledby="title desc">
  <title id="title">Uzumibi</title>
  <desc id="desc">Monochrome logo: an angular U holding an ember and flame, above the Uzumibi wordmark.</desc>
  <path fill="#171717" d="M155 84 L255 159 L255 354 L320 405 L385 354 L385 159 L485 84 L485 356 L370 454 L270 454 L155 356 Z"/>
  <path fill="#171717" d="M272 292 L320 329 L368 292 L368 345 L320 382 L272 345 Z"/>
  <path fill="#171717" d="M320 318 C295 299 293 269 320 234 C316 260 329 277 350 298 Z"/>
  <path fill="#171717" transform="translate(80 584) scale(0.06027122 -0.06027122)" d="M147 1466H443V672Q443 483 454 427Q473 337 544.5 282.5Q616 228 740 228Q866 228 930.0 279.5Q994 331 1007.0 406.0Q1020 481 1020 655V1466H1316V696Q1316 432 1292.0 323.0Q1268 214 1203.5 139.0Q1139 64 1031.0 19.5Q923 -25 749 -25Q539 -25 430.5 23.5Q322 72 259.0 149.5Q196 227 176 312Q147 438 147 684ZM1513 0V219L1911 676Q2009 788 2056 835Q2007 832 1927 831L1552 829V1062H2430V863L2024 395L1881 240Q1998 247 2026 247H2461V0ZM3349 0V159Q3291 74 3196.5 25.0Q3102 -24 2997 -24Q2890 -24 2805.0 23.0Q2720 70 2682.0 155.0Q2644 240 2644 390V1062H2925V574Q2925 350 2940.5 299.5Q2956 249 2997.0 219.5Q3038 190 3101 190Q3173 190 3230.0 229.5Q3287 269 3308.0 327.5Q3329 386 3329 614V1062H3610V0ZM3880 1062H4139V917Q4278 1086 4470 1086Q4572 1086 4647.0 1044.0Q4722 1002 4770 917Q4840 1002 4921.0 1044.0Q5002 1086 5094 1086Q5211 1086 5292.0 1038.5Q5373 991 5413 899Q5442 831 5442 679V0H5161V607Q5161 765 5132 811Q5093 871 5012 871Q4953 871 4901.0 835.0Q4849 799 4826.0 729.5Q4803 660 4803 510V0H4522V582Q4522 737 4507.0 782.0Q4492 827 4460.5 849.0Q4429 871 4375 871Q4310 871 4258.0 836.0Q4206 801 4183.5 735.0Q4161 669 4161 516V0H3880ZM5722 1206V1466H6003V1206ZM5722 0V1062H6003V0ZM6279 0V1466H6560V938Q6690 1086 6868 1086Q7062 1086 7189.0 945.5Q7316 805 7316 542Q7316 270 7186.5 123.0Q7057 -24 6872 -24Q6781 -24 6692.5 21.5Q6604 67 6540 156V0ZM6558 554Q6558 389 6610 310Q6683 198 6804 198Q6897 198 6962.5 277.5Q7028 357 7028 528Q7028 710 6962.0 790.5Q6896 871 6793 871Q6692 871 6625.0 792.5Q6558 714 6558 554ZM7542 1206V1466H7823V1206ZM7542 0V1062H7823V0Z"/>
</svg>
